<svg width="48" height="48" xmlns="http://www.w3.org/2000/svg">

    <g>
        <title>background</title>
        <rect fill="none" id="canvas_background" height="672" width="1422" y="-1" x="-1"/>
    </g>
    <g>
        <title>Layer 1</title>
        <g id="svg_1" fill-rule="evenodd" fill="none">
            <circle id="svg_2" stroke-width="1.02" stroke="#e5e5e5" fill="#fff" r="23.5" cy="24" cx="24"/>
            <path id="svg_3" mask="url(#mask-4)" fill="#5C87A1" d="m13.56154,30.43021l-1.53444,0c-0.0542,-2.54685 -0.20379,-4.94193 -0.44828,-7.18573l-0.01349,0l-2.33634,7.18573l-1.16828,0l-2.32237,-7.18573l-0.01349,0c-0.17231,2.15488 -0.28071,4.54997 -0.32568,7.18573l-1.39929,0c0.09042,-3.20556 0.31669,-6.21093 0.67905,-9.01591l1.90178,0l2.21373,6.62478l0.01373,0l2.22745,-6.62478l1.81988,0c0.39835,3.28539 0.63361,6.29123 0.70604,9.01591"/>
            <path id="svg_4" fill="#5C87A1" d="m20.21671,23.77801c-0.62485,3.33403 -1.44899,5.75705 -2.47195,7.26882c-0.7974,1.16449 -1.67054,1.74685 -2.62154,1.74685c-0.25349,0 -0.56592,-0.07518 -0.93704,-0.22414l0,-0.80395c0.1813,0.0263 0.39408,0.04003 0.63858,0.04003c0.44355,0 0.80118,-0.12033 1.07313,-0.36101c0.32568,-0.29327 0.48852,-0.62286 0.48852,-0.98829c0,-0.24952 -0.1271,-0.76112 -0.38011,-1.53551l-1.68403,-5.1428l1.50746,0l1.20852,3.8461c0.27171,0.87331 0.38485,1.48314 0.33964,1.83065c0.66107,-1.73638 1.12284,-3.62871 1.38557,-5.67675l1.45325,0z"/>
            <path id="svg_5" d="m40.64386,30.42981l-4.35977,0l0,-9.01591l1.46699,0l0,7.90681l2.89278,0l0,1.1091zm-10.96038,-1.80365c-0.37136,-0.58748 -0.55716,-1.53062 -0.55716,-2.83104c0,-2.27056 0.70177,-3.40642 2.10509,-3.40642c0.73373,0 1.27219,0.27163 1.61657,0.81442c0.37112,0.58818 0.55692,1.52294 0.55692,2.80521c0,2.28848 -0.70201,3.43319 -2.10533,3.43319c-0.73325,0 -1.27219,-0.27117 -1.61609,-0.81536l0,0zm5.45988,2.02128l-1.68521,-0.81722c0.15006,-0.12126 0.29278,-0.25161 0.42178,-0.4029c0.71527,-0.82699 1.07337,-2.05154 1.07337,-3.67247c0,-2.98257 -1.19077,-4.47478 -3.57207,-4.47478c-1.16805,0 -2.07811,0.37823 -2.73018,1.13563c-0.71574,0.82815 -1.0729,2.04781 -1.0729,3.65966c0,1.58509 0.31645,2.74772 0.9503,3.48626c0.57964,0.66755 1.45349,1.00156 2.62177,1.00156c0.43622,0 0.83669,-0.0526 1.20048,-0.15828l2.19432,1.25574l0.59834,-1.0132zm-8.20466,-2.7166c0,0.76462 -0.28568,1.39213 -0.85515,1.88349c-0.56994,0.48879 -1.33562,0.73412 -2.29467,0.73412c-0.89657,0 -1.76568,-0.28211 -2.60758,-0.84189l0.39385,-0.77439c0.72426,0.35612 1.38012,0.53395 1.96876,0.53395c0.55218,0 0.98437,-0.1208 1.29704,-0.35961c0.31195,-0.24044 0.49893,-0.57585 0.49893,-1.00133c0,-0.53558 -0.37964,-0.99318 -1.07621,-1.37677c-0.64332,-0.34704 -1.92829,-1.07162 -1.92829,-1.07162c-0.69656,-0.4995 -1.04544,-1.03577 -1.04544,-1.91886c0,-0.73016 0.26012,-1.32044 0.78036,-1.76966c0.52118,-0.45016 1.19361,-0.67524 2.01704,-0.67524c0.85112,0 1.62485,0.22345 2.32213,0.66872l-0.35409,0.77369c-0.59645,-0.24882 -1.18461,-0.37358 -1.76473,-0.37358c-0.4703,0 -0.8329,0.11126 -1.08568,0.33471c-0.25444,0.22158 -0.41136,0.50671 -0.41136,0.85422c0,0.53395 0.38793,0.99714 1.1039,1.38841c0.65137,0.34727 1.96805,1.08582 1.96805,1.08582c0.71622,0.49856 1.07314,1.02995 1.07314,1.90582" fill="#F7981C"/>
            <path id="svg_6" mask="url(#mask-6)" fill="#5C87A1" d="m42.484709,18.39412c-0.88663,-0.02188 -1.57302,0.06517 -2.14911,0.30514c-0.16616,0.06518 -0.43148,0.06518 -0.45444,0.2721c0.08923,0.08728 0.09988,0.22857 0.17799,0.34914c0.13278,0.21763 0.36473,0.51137 0.57586,0.66429c0.23242,0.17434 0.46508,0.34797 0.70934,0.50043c0.43148,0.26255 0.91906,0.41454 1.33941,0.67616c0.2445,0.15223 0.48734,0.34821 0.73207,0.51207c0.12119,0.08706 0.19835,0.22881 0.35385,0.28281l0,-0.03306c-0.07787,-0.09776 -0.09988,-0.23927 -0.1768,-0.3489c-0.11077,-0.10823 -0.22178,-0.20692 -0.33279,-0.31516c-0.32142,-0.42501 -0.72071,-0.79487 -1.15171,-1.10001c-0.35479,-0.24021 -1.13065,-0.56724 -1.27408,-0.96898c0,0 -0.01137,-0.01164 -0.02225,-0.02234c0.24355,-0.02188 0.5323,-0.10917 0.76449,-0.1755c0.3761,-0.09776 0.71953,-0.07565 1.10722,-0.17341c0.17752,-0.04376 0.3548,-0.09869 0.53278,-0.15222l0,-0.09869c-0.20047,-0.19575 -0.34366,-0.45761 -0.55432,-0.64265c-0.56449,-0.47902 -1.18556,-0.94709 -1.82792,-1.33976c-0.34391,-0.21809 -0.78699,-0.35914 -1.15267,-0.54465c-0.13207,-0.06564 -0.35361,-0.09776 -0.43148,-0.20739c-0.19952,-0.23951 -0.31053,-0.55513 -0.45443,-0.83863c-0.32071,-0.59865 -0.63172,-1.26272 -0.90817,-1.89582c-0.19929,-0.42455 -0.32118,-0.84887 -0.56497,-1.24153c-1.14154,-1.85206 -2.38178,-2.97349 -4.2871,-4.07398c-0.40994,-0.22926 -0.89728,-0.32726 -1.41752,-0.44689c-0.27739,-0.01164 -0.55408,-0.03259 -0.831,-0.0433c-0.17752,-0.07657 -0.35503,-0.28396 -0.50982,-0.38195c-0.63172,-0.39197 -2.25941,-1.24154 -2.72497,-0.11964c-0.29894,0.70852 0.44307,1.40539 0.69798,1.76501c0.18817,0.25045 0.43243,0.53395 0.5645,0.81698c0.07763,0.18528 0.09988,0.38149 0.17775,0.57747c0.17704,0.47925 0.34296,1.0132 0.5761,1.45987c0.12142,0.2288 0.2542,0.469 0.40923,0.67476c0.08947,0.1208 0.24402,0.17434 0.27739,0.37125c-0.15455,0.2174 -0.16662,0.54419 -0.25514,0.81675c-0.39858,1.2313 -0.24355,2.75633 0.32142,3.66013c0.1768,0.27233 0.59834,0.87192 1.16331,0.64242c0.49846,-0.19575 0.38769,-0.81652 0.53183,-1.36094c0.0329,-0.13174 0.01066,-0.2181 0.07716,-0.30515l0,0.02211c0.1548,0.30445 0.3103,0.59796 0.45444,0.90404c0.34367,0.53325 0.9413,1.08884 1.44048,1.45893c0.26508,0.19691 0.4755,0.53395 0.80804,0.65428l0,-0.03305l-0.02201,0c-0.06651,-0.09776 -0.16592,-0.14152 -0.25467,-0.2174c-0.19953,-0.19621 -0.4206,-0.43595 -0.57634,-0.65382c-0.46508,-0.60982 -0.8755,-1.28552 -1.24023,-1.98287c-0.17775,-0.33843 -0.33231,-0.70851 -0.47669,-1.04601c-0.06627,-0.12988 -0.06627,-0.3268 -0.17728,-0.39174c-0.16662,0.23928 -0.40946,0.44667 -0.53136,0.73971c-0.21065,0.46901 -0.23242,1.04648 -0.31053,1.64584c-0.04426,0.0114 -0.02201,0 -0.04426,0.02141c-0.35408,-0.08705 -0.47598,-0.4462 -0.60923,-0.75041c-0.33231,-0.77439 -0.38817,-2.01639 -0.09965,-2.90972c0.07716,-0.22833 0.41042,-0.94709 0.27693,-1.16496c-0.06675,-0.20808 -0.28829,-0.32656 -0.40994,-0.49065c-0.14367,-0.20716 -0.29965,-0.46808 -0.39835,-0.69711c-0.26603,-0.61006 -0.39976,-1.28576 -0.68686,-1.89559c-0.13302,-0.2835 -0.36592,-0.57794 -0.55361,-0.83886c-0.21112,-0.29421 -0.44331,-0.5009 -0.60994,-0.84934c-0.05491,-0.1201 -0.13255,-0.31608 -0.04426,-0.44643c0.02201,-0.08728 0.06674,-0.12033 0.1555,-0.14221c0.14343,-0.11964 0.55361,0.03235 0.69728,0.09799c0.41018,0.1627 0.75361,0.31608 1.09657,0.54442c0.15526,0.1094 0.32165,0.31609 0.52047,0.37125l0.23314,0c0.35432,0.07541 0.75337,0.02095 1.08615,0.11941c0.58651,0.18504 1.11811,0.4576 1.59479,0.75157c1.45065,0.9045 2.64734,2.19026 3.45563,3.726c0.13301,0.24999 0.18887,0.47902 0.31053,0.73994c0.23266,0.53511 0.52094,1.07977 0.75313,1.60208c0.23243,0.51207 0.45468,1.03438 0.78722,1.45986c0.16568,0.22857 0.83077,0.34821 1.12971,0.46831c0.22106,0.09776 0.56497,0.18505 0.76449,0.30445c0.37681,0.22857 0.75267,0.49042 1.1077,0.74134c0.1768,0.13081 0.73065,0.4029 0.76402,0.621"/>
            <path id="svg_7" fill="#5C87A1" d="m31.18542,8.92657c-0.18793,0 -0.32047,0.02211 -0.4542,0.0547l0,0.02187l0.02177,0c0.08947,0.17388 0.2445,0.29444 0.35456,0.4469c0.08923,0.17434 0.16663,0.34798 0.25515,0.52231c0.01112,-0.01047 0.02177,-0.02188 0.02177,-0.02188c0.15598,-0.10846 0.23338,-0.2828 0.23338,-0.54465c-0.06675,-0.07658 -0.0774,-0.15223 -0.13302,-0.2288c-0.06651,-0.1087 -0.21065,-0.16317 -0.29941,-0.25045"/>
            <g id="svg_8">
                <path id="svg_9" mask="url(#mask-8)" fill="#F7981C" d="m41.69117,30.42851l0.24284,0l0,-0.91707l0.31835,0l0,-0.18761l-0.89184,0l0,0.18761l0.33065,0l0,0.91707zm1.84947,0l0.22911,0l0,-1.10468l-0.34438,0l-0.28047,0.75298l-0.30556,-0.75298l-0.33207,0l0,1.10468l0.2168,0l0,-0.8405l0.01255,0l0.31952,0.8405l0.16545,0l0.31905,-0.8405l0,0.8405z"/>
            </g>
        </g>
        <path stroke="#e5e5e5" d="m44.226387,15.085217c0,0 -0.284148,-0.271106 -2.97732,-1.386952c-3.330624,-1.37996 -5.821173,-2.094063 -8.931978,-3.051294c-2.588342,-0.796464 0,-1.109561 -2.97732,-1.109561l0,-0.277391l0,0l0,0" id="svg_13" fill-opacity="null" stroke-opacity="null" stroke-width="0" fill="none"/>
        <text stroke="#e5e5e5" transform="matrix(0.595993936061859,0,0,0.6806980035546885,20.5561385580304,-1.1735011466271383) " xml:space="preserve" text-anchor="start" font-family="Arvo, sans-serif" font-size="24" id="svg_14" y="16.972214" x="0.076901" stroke-opacity="null" stroke-width="0" fill="#f47600">new</text>
    </g>
</svg>